# xmcd
#
# Track frame offsets: 
#        150
#        18473
#        34489
#        59587
#        83250
#        100923
#        118794
#        147793
#        167999
#        186324
#        208971
#        226024
#        238790
#        271031
#        287875
#        306778
#        330938
#        354530
#
# Disc length: 4784 seconds
#
# Revision: 0
# Processed by: cddbd v1.5.2PL0 Copyright (c) Steve Scherf et al.
# Submitted via: ExactAudioCopy v1.3
#
DISCID=0512ae12
DTITLE=Various Artist - Akella Presents - vol. 160 - Blues-Rock (wome
DTITLE=n and man)  CD2
DYEAR=2018
DGENRE=Blues
TTITLE0=The Apocalypse Blues Revue - Have You Heard
TTITLE1=Scarlet Rain - By My Side
TTITLE2=Blindside Blues Band - Calling My Name
TTITLE3=Amanda Fish - Going Down
TTITLE4=Dirty Dave Osti - Bastard
TTITLE5=Jocelyn and Chris Arndt - Hot
TTITLE6=Eddie Turner - Say
TTITLE7=Bare Bones Boogie Band - Cheatin' Again
TTITLE8=Paul Black - Slippin' Away
TTITLE9=The Dirty Denims - Can't Get Enough of Rock  and Roll
TTITLE10=Colin James - Tears Came Rolling Down
TTITLE11=Rachelle Coba - No Deals
TTITLE12=Ian Parker - Love So Cold
TTITLE13=Bettye LaVette - Everything is Broken
TTITLE14=Rebel Heart - Yuk Fu
TTITLE15=Hurricane Ruth - Money Train
TTITLE16=Jeff Healey Band - Hoochie Coochie Man
TTITLE17=Buddy Guy - Milking Muther For Ya
EXTD=
EXTT0=
EXTT1=
EXTT2=
EXTT3=
EXTT4=
EXTT5=
EXTT6=
EXTT7=
EXTT8=
EXTT9=
EXTT10=
EXTT11=
EXTT12=
EXTT13=
EXTT14=
EXTT15=
EXTT16=
EXTT17=
PLAYORDER=
